<svg xmlns:xlink="http://www.w3.org/1999/xlink" xmlns="http://www.w3.org/2000/svg" xml:space="preserve" viewBox="22.834999084472656 45.59199905395508 62.707000732421875 16.082000732421875" height="" width="" y="0px" x="0px" id="Layer_1" preserveAspectRatio="xMidYMid meet">
<g>
	<g>
		<path d="M71.428,51.246c-0.069-0.1-0.165-0.173-0.288-0.222    c-0.124-0.048-0.287-0.072-0.49-0.072h-0.577v2.289h0.632c0.195,0,0.352-0.025,0.468-0.077s0.205-0.125,0.267-0.222    s0.104-0.215,0.125-0.356c0.022-0.141,0.033-0.304,0.033-0.49s-0.011-0.349-0.033-0.49C71.542,51.466,71.496,51.345,71.428,51.246    z" fill="#FFFFFF" clip-rule="evenodd" fill-rule="evenodd"></path>
		<path d="M66.121,50.952c-0.203,0-0.379,0.06-0.527,0.18    c-0.149,0.121-0.224,0.308-0.224,0.562v3.877c0,0.255,0.074,0.442,0.224,0.562c0.148,0.12,0.324,0.18,0.527,0.18    s0.38-0.06,0.528-0.18s0.223-0.308,0.223-0.562v-3.877c0-0.254-0.074-0.442-0.223-0.562    C66.501,51.012,66.324,50.952,66.121,50.952z" fill="#FFFFFF" clip-rule="evenodd" fill-rule="evenodd"></path>
		<path d="M39.583,45.592v16.082h45.959V45.592H39.583z M47.215,50.952    h-2.198v2.155h1.916v0.99h-1.916v2.155h2.198v1.052h-3.309v-7.342h3.309V50.952z M50.492,57.304l-0.969-2.475l-0.958,2.475H47.39    l1.567-3.846l-1.447-3.496h1.175l0.838,2.176l0.849-2.176h1.176l-1.48,3.496l1.6,3.846H50.492z M53.311,57.304h-1.11v-7.342h1.11    V57.304z M57.513,50.952h-1.285v6.352h-1.11v-6.352h-1.284v-0.99h3.68V50.952z M62.606,57.304h-1.045l-0.85-4.764H60.69    l-0.838,4.764h-1.045l-1.154-7.342h1.176l0.555,4.661h0.022l0.87-4.661h0.85l0.903,4.774h0.021l0.533-4.774h1.176L62.606,57.304z     M67.982,55.571c0,0.303-0.054,0.565-0.163,0.789c-0.108,0.224-0.252,0.409-0.43,0.557c-0.178,0.148-0.377,0.26-0.599,0.335    c-0.222,0.076-0.444,0.114-0.67,0.114c-0.225,0-0.448-0.038-0.669-0.114c-0.222-0.075-0.421-0.187-0.599-0.335    c-0.178-0.147-0.321-0.333-0.43-0.557c-0.109-0.224-0.164-0.486-0.164-0.789v-3.877c0-0.296,0.055-0.557,0.164-0.784    c0.108-0.227,0.252-0.414,0.43-0.562c0.178-0.148,0.377-0.26,0.599-0.335c0.221-0.076,0.444-0.113,0.669-0.113    c0.226,0,0.448,0.038,0.67,0.113s0.421,0.188,0.599,0.335c0.178,0.147,0.321,0.335,0.43,0.562    c0.109,0.227,0.163,0.488,0.163,0.784V55.571z M71.771,57.304l-1.034-3.135h-0.664v3.135h-1.109v-7.342h1.784    c1.307,0,1.96,0.718,1.96,2.155c0,0.426-0.071,0.792-0.213,1.098c-0.141,0.306-0.39,0.552-0.745,0.737l1.197,3.351H71.771z     M76.908,57.304H73.6v-7.342h1.109v6.29h2.199V57.304z M81.218,55.293c0,0.688-0.176,1.194-0.527,1.521    c-0.353,0.326-0.858,0.489-1.519,0.489h-1.546v-7.342h1.644c0.632,0,1.114,0.167,1.448,0.5c0.333,0.333,0.5,0.799,0.5,1.397    V55.293z" fill="#FFFFFF" clip-rule="evenodd" fill-rule="evenodd"></path>
		<path d="M79.248,50.952h-0.512v5.362h0.512    c0.312,0,0.533-0.073,0.664-0.222c0.131-0.147,0.196-0.379,0.196-0.695v-3.537c0-0.289-0.062-0.512-0.186-0.67    S79.574,50.952,79.248,50.952z" fill="#FFFFFF" clip-rule="evenodd" fill-rule="evenodd"></path>
	</g>
	<g>
		<path d="M33.624,49.373v0.375l0.166,2.063    c0.004,0.019,0.723,1.53,0.926,1.991c0.034,0.076-0.055,0.171-0.123,0.189c-0.253,0.07-0.692,0.175-0.72,0.185    c-0.017,0.17-0.037,1.124-0.047,1.658c-0.006,0.27-0.222,0.475-0.509,0.595l-0.338,0.121v1.765l5.938,3.358l0,0V45.682    L33.624,49.373z" fill="#FFFFFF" clip-rule="evenodd" fill-rule="evenodd"></path>
		<g>
			<polygon points="38.789,45.592 22.964,45.592 28.257,49.283      33.495,49.283    " fill="#FFFFFF" clip-rule="evenodd" fill-rule="evenodd"></polygon>
			<polygon points="22.835,45.682 22.835,61.674 28.128,58.413      28.128,49.373    " fill="#FFFFFF" clip-rule="evenodd" fill-rule="evenodd"></polygon>
		</g>
	</g>
</g>
</svg>