<svg xmlns:xlink="http://www.w3.org/1999/xlink" xmlns="http://www.w3.org/2000/svg" xml:space="preserve" viewBox="9.216001510620117 9.168999671936035 90.4949951171875 88.86000061035156" height="" width="" y="0px" x="0px" id="Layer_1" preserveAspectRatio="xMidYMid meet">
<g>
	<path d="M81.188,64.27c-0.727-0.786-1.699-1.219-2.736-1.219c-0.767,0-1.837,0.201-2.606,0.741   c-0.084-0.953-0.497-1.838-1.183-2.523c-0.771-0.774-1.798-1.201-2.895-1.201c-1.076,0-2.085,0.416-2.839,1.145   c-0.036-1.028-0.422-1.988-1.094-2.716c-0.72-0.787-1.682-1.221-2.708-1.221c-0.903,0-1.757,0.349-2.426,0.943   c-0.287-5.482-1.229-19.039-1.274-19.665c0-1.032-0.423-1.996-1.19-2.71c-0.756-0.713-1.761-1.107-2.829-1.107   c-2.215,0-4.017,1.712-4.017,3.812l-0.167,21.722c-0.219,2.906-1.296,9.666-6.553,9.666c-1.12,0-2.375-0.314-3.729-0.934   l-4.164-3.44c-2.421-2.329-5.756-3.894-8.299-3.894c-0.843,0-1.543,0.173-2.083,0.516c-0.833,0.53-1.327,1.423-1.391,2.514   c-0.087,1.485,0.619,3.068,1.8,4.033C40.26,78.098,44.63,83.755,47.242,87.135c1.73,2.239,2.773,3.59,4.562,4.242   c0.713,0.343,1.112,1.059,1.186,2.127c0.124,1.769,0.19,3.896,0.191,3.917c0.01,0.339,0.289,0.608,0.628,0.608h19.454   c0.005,0,0.008,0,0.013,0c0.347,0,0.628-0.281,0.628-0.629c0-0.043-0.004-0.087-0.013-0.129c-0.003-1.549,0.216-4.178,0.834-5.024   c0.437-0.597,0.884-1.102,1.356-1.635c1.399-1.578,2.985-3.367,4.564-8.064c2.257-6.711,1.678-15.096,1.654-15.403   C82.3,66.058,81.904,65.036,81.188,64.27z M79.454,82.148c-1.497,4.455-2.929,6.068-4.313,7.63   c-0.472,0.532-0.959,1.083-1.43,1.728c-0.873,1.193-1.041,3.978-1.071,5.267H54.415c-0.029-0.771-0.087-2.146-0.172-3.356   c-0.105-1.529-0.761-2.626-1.951-3.196c-1.504-0.551-2.357-1.654-4.056-3.853c-2.644-3.423-7.069-9.151-18.636-18.608   c-0.865-0.707-1.404-1.906-1.34-2.985c0.028-0.479,0.192-1.134,0.811-1.526c0.33-0.211,0.816-0.321,1.408-0.321   c1.804,0,4.898,1.109,7.463,3.575l4.262,3.522c0.042,0.035,0.088,0.063,0.136,0.086c1.549,0.72,3.007,1.085,4.331,1.085   c4.376,0,7.295-4.048,7.808-10.87l0.169-21.77c0-1.411,1.238-2.56,2.76-2.56c0.746,0,1.444,0.271,1.971,0.767   c0.511,0.477,0.793,1.113,0.794,1.836c0.014,0.188,1.309,18.84,1.354,21.561c0.005,0.306,0.229,0.562,0.53,0.609   c0.304,0.054,0.594-0.128,0.692-0.415c0.374-1.09,1.33-1.821,2.379-1.821c0.669,0,1.302,0.288,1.782,0.814   c0.493,0.534,0.765,1.253,0.765,2.022v0.743c0,0.272,0.177,0.516,0.437,0.598l0.551,0.178c0.271,0.087,0.566-0.019,0.721-0.259   c0.525-0.816,1.417-1.305,2.386-1.305c0.759,0,1.471,0.295,2.005,0.832c0.536,0.536,0.832,1.248,0.832,2.004v0.17   c0,0.272,0.177,0.515,0.437,0.598l0.686,0.22c0.229,0.074,0.478,0.012,0.644-0.161c0.387-0.399,1.242-0.678,2.081-0.678   c0.684,0,1.328,0.289,1.816,0.815c0.492,0.529,0.774,1.265,0.776,2.065C81.051,67.273,81.631,75.674,79.454,82.148z" fill="#FFFFFF"></path>
	<path d="M91.877,39.169c-0.012-0.036-0.031-0.066-0.05-0.099c-0.019-0.036-0.036-0.069-0.062-0.1   c-0.024-0.03-0.055-0.054-0.085-0.08c-0.021-0.017-0.036-0.04-0.059-0.055c-7.719-4.918-16.198-8.213-25.202-9.792   c-0.169-0.029-0.342,0.011-0.479,0.113c-0.14,0.102-0.229,0.254-0.252,0.425l-0.399,3.083c-0.043,0.334,0.184,0.642,0.515,0.7   c8.54,1.498,16.582,4.623,23.901,9.287c0.019,0.012,0.04,0.018,0.06,0.028c0.008,0.003,0.013,0.011,0.021,0.014   c0.008,0.004,0.017,0.002,0.024,0.005c0.075,0.031,0.152,0.051,0.233,0.051c0.06,0,0.12-0.008,0.18-0.026   c0.006-0.001,0.01-0.007,0.016-0.009c0.068-0.023,0.132-0.06,0.189-0.105c0.017-0.013,0.031-0.025,0.047-0.04   c0.056-0.054,0.105-0.115,0.14-0.189c0,0,0.001-0.001,0.001-0.002l0.001,0l0,0l1.242-2.756c0.005-0.011,0.004-0.025,0.008-0.038   c0.024-0.062,0.041-0.126,0.044-0.19c0.002-0.035-0.008-0.067-0.012-0.101C91.894,39.251,91.891,39.209,91.877,39.169z    M89.767,41.206c-7.125-4.435-14.908-7.451-23.154-8.972l0.237-1.835c8.423,1.56,16.368,4.655,23.637,9.208L89.767,41.206z" fill="#FFFFFF"></path>
	<path d="M33.258,53c0.032-0.022,0.069-0.039,0.096-0.066c0.03-0.03,0.048-0.067,0.071-0.103   c0.02-0.03,0.043-0.058,0.058-0.09c0.016-0.037,0.021-0.077,0.03-0.117c0.008-0.036,0.019-0.072,0.021-0.109   c0.001-0.04-0.008-0.079-0.014-0.118c-0.004-0.031-0.001-0.063-0.011-0.094l-1.877-5.978c-0.054-0.17-0.177-0.309-0.338-0.383   c-0.162-0.073-0.347-0.077-0.511-0.005c-2.866,1.244-5.656,2.727-8.294,4.409c-0.025,0.016-0.041,0.039-0.062,0.058   c-0.028,0.024-0.056,0.045-0.08,0.074c-0.028,0.034-0.047,0.071-0.067,0.11c-0.016,0.029-0.034,0.057-0.044,0.088   c-0.016,0.045-0.02,0.092-0.024,0.14c-0.003,0.029-0.011,0.057-0.01,0.087c0.003,0.078,0.019,0.156,0.052,0.231c0,0,0,0,0,0.001   l2.535,5.628c0,0,0,0,0,0.001l0,0.001c0.075,0.167,0.218,0.292,0.393,0.344c0.059,0.018,0.12,0.026,0.18,0.026   c0.119,0,0.236-0.034,0.338-0.099c2.372-1.513,4.883-2.847,7.461-3.966C33.198,53.052,33.225,53.023,33.258,53z M31.225,52.57   c-0.163,0.076-0.327,0.15-0.489,0.229c-0.445,0.214-0.886,0.437-1.326,0.663c-0.132,0.068-0.265,0.133-0.396,0.202   c-0.524,0.275-1.044,0.561-1.56,0.852c-0.041,0.024-0.083,0.045-0.125,0.069c-0.57,0.325-1.135,0.658-1.692,1.003l-0.792-1.759   l-1.222-2.713c2.248-1.404,4.604-2.66,7.02-3.743l1.499,4.771C31.833,52.28,31.53,52.428,31.225,52.57z" fill="#FFFFFF"></path>
	<path d="M87.535,48.8c-0.01-0.027-0.025-0.051-0.038-0.076c-0.022-0.043-0.044-0.085-0.076-0.124   c-0.02-0.023-0.044-0.042-0.068-0.062c-0.023-0.022-0.043-0.049-0.071-0.067c-3.407-2.171-7.041-4.008-10.802-5.463   c-0.166-0.063-0.349-0.055-0.508,0.024c-0.158,0.079-0.276,0.221-0.323,0.392l-2.267,8.063c-0.011,0.039-0.007,0.078-0.011,0.117   c-0.003,0.032-0.01,0.062-0.008,0.094c0.003,0.046,0.018,0.088,0.03,0.133c0.01,0.032,0.013,0.064,0.027,0.095   c0.018,0.038,0.047,0.068,0.071,0.103c0.021,0.029,0.039,0.062,0.066,0.087c0.027,0.026,0.065,0.042,0.099,0.062   c0.034,0.022,0.063,0.051,0.104,0.066c3.296,1.274,6.48,2.885,9.466,4.789c0.104,0.064,0.22,0.098,0.339,0.098   c0.06,0,0.12-0.008,0.179-0.026c0.176-0.052,0.318-0.177,0.394-0.343v-0.003h0.001l0.479-1.062l2.9-6.437   c0.002-0.005,0-0.011,0.003-0.015c0.029-0.071,0.047-0.144,0.05-0.217c0.001-0.027-0.007-0.051-0.01-0.077   C87.557,48.9,87.552,48.849,87.535,48.8z M85.41,50.879l-2.121,4.709c-0.712-0.44-1.436-0.863-2.167-1.27   c-0.09-0.051-0.184-0.097-0.273-0.146c-0.634-0.348-1.271-0.687-1.917-1.01c-0.187-0.093-0.378-0.178-0.565-0.269   c-0.554-0.269-1.11-0.534-1.673-0.785c-0.236-0.105-0.477-0.201-0.715-0.303c-0.411-0.175-0.818-0.359-1.233-0.523l1.925-6.847   c3.286,1.314,6.469,2.929,9.478,4.808L85.41,50.879z" fill="#FFFFFF"></path>
	<path d="M49.223,18.095c0.126,0.112,0.294,0.168,0.458,0.159c4.166-0.26,8.402-0.178,12.553,0.247   c0.021,0.001,0.043,0.003,0.064,0.003c0.146,0,0.289-0.052,0.402-0.146c0.131-0.109,0.211-0.266,0.225-0.435l0.508-6.701   c0.025-0.34-0.224-0.638-0.562-0.673c-4.491-0.459-9.076-0.551-13.581-0.267c-0.342,0.021-0.604,0.314-0.588,0.657l0.313,6.718   C49.022,17.824,49.097,17.982,49.223,18.095z M62.134,11.739l-0.413,5.449c-2.405-0.226-4.842-0.341-7.255-0.341   c-1.402,0-2.821,0.039-4.226,0.116L49.986,11.5C54.027,11.277,58.109,11.357,62.134,11.739z" fill="#FFFFFF"></path>
	<path d="M32.428,27.461l-2.294-9.477c-0.042-0.17-0.152-0.316-0.306-0.401c-0.154-0.085-0.336-0.103-0.503-0.047   c-6.249,2.071-12.239,4.918-17.804,8.465c-0.024,0.015-0.04,0.039-0.061,0.057c-0.029,0.024-0.057,0.046-0.081,0.075   c-0.028,0.033-0.047,0.07-0.067,0.107c-0.016,0.03-0.035,0.059-0.045,0.091c-0.015,0.044-0.019,0.091-0.023,0.138   c-0.003,0.03-0.012,0.058-0.01,0.088c0.003,0.079,0.02,0.156,0.053,0.231c0,0.001,0,0.001,0,0.001l3.142,6.977l0.777,1.725l0,0   l0,0.002c0,0,0.001,0.001,0.001,0.001c0.034,0.074,0.084,0.135,0.14,0.188c0.016,0.015,0.03,0.028,0.047,0.041   c0.058,0.045,0.12,0.082,0.189,0.104c0.006,0.001,0.01,0.006,0.016,0.008c0.059,0.018,0.12,0.027,0.18,0.027   c0.081,0,0.158-0.021,0.233-0.052c0.008-0.003,0.016-0.001,0.024-0.005s0.013-0.011,0.021-0.015c0.02-0.01,0.041-0.015,0.06-0.027   c4.969-3.167,10.318-5.711,15.897-7.56C32.326,28.103,32.505,27.779,32.428,27.461z M16.056,34.318l-3.399-7.547   c5.153-3.235,10.67-5.864,16.417-7.824l1.997,8.25C25.819,28.983,20.774,31.376,16.056,34.318z" fill="#FFFFFF"></path>
	<path d="M34.623,35.672c0.038,0.17,0.146,0.317,0.297,0.405c0.097,0.056,0.206,0.085,0.315,0.085   c0.062,0,0.124-0.009,0.185-0.028c4.548-1.395,9.262-2.29,14.011-2.659c0.341-0.026,0.599-0.32,0.579-0.663l-0.283-4.912   c-0.01-0.168-0.087-0.326-0.214-0.437c-0.127-0.112-0.295-0.167-0.462-0.154c-5.107,0.396-10.178,1.359-15.069,2.859   c-0.314,0.096-0.501,0.417-0.429,0.738l0.409,1.818c-5.637,1.78-11.012,4.285-16.037,7.489c-0.292,0.187-0.378,0.575-0.192,0.868   c0.12,0.188,0.322,0.291,0.53,0.291c0.116,0,0.232-0.032,0.337-0.098c4.901-3.126,10.143-5.57,15.638-7.315L34.623,35.672z    M48.509,28.618l0.21,3.656c-4.408,0.384-8.781,1.211-13.019,2.464l-0.794-3.533C39.333,29.887,43.903,29.018,48.509,28.618z" fill="#FFFFFF"></path>
	<path d="M45.411,9.764c-0.04-0.346-0.355-0.595-0.697-0.552c-12.421,1.458-24.565,5.785-35.119,12.51   c-0.293,0.187-0.379,0.575-0.192,0.868c0.12,0.188,0.322,0.292,0.53,0.292c0.116,0,0.232-0.032,0.337-0.098   c10.395-6.625,22.356-10.886,34.59-12.323C45.205,10.42,45.451,10.107,45.411,9.764z" fill="#FFFFFF"></path>
	<path d="M39.273,21.014c-1.236,0.253-2.482,0.542-3.704,0.858c-0.336,0.086-0.539,0.429-0.451,0.765   c0.073,0.284,0.328,0.472,0.608,0.472c0.052,0,0.105-0.006,0.158-0.021c1.201-0.31,2.426-0.594,3.642-0.843   c0.34-0.069,0.559-0.402,0.489-0.742C39.945,21.163,39.612,20.945,39.273,21.014z" fill="#FFFFFF"></path>
	<path d="M62.53,20.533c-0.04,0.344,0.206,0.657,0.552,0.697c1.228,0.143,2.473,0.32,3.7,0.527   c0.035,0.005,0.07,0.008,0.104,0.008c0.302,0,0.567-0.217,0.62-0.524c0.057-0.342-0.174-0.667-0.516-0.724   c-1.249-0.21-2.515-0.39-3.764-0.536C62.889,19.939,62.57,20.188,62.53,20.533z" fill="#FFFFFF"></path>
	<path d="M69.358,21.592c-0.072,0.34,0.145,0.674,0.484,0.746c1.218,0.257,2.441,0.549,3.636,0.865   c0.054,0.015,0.107,0.021,0.161,0.021c0.278,0,0.532-0.186,0.607-0.467c0.089-0.336-0.111-0.68-0.447-0.77   c-1.215-0.322-2.459-0.618-3.697-0.88C69.763,21.034,69.43,21.253,69.358,21.592z" fill="#FFFFFF"></path>
	<path d="M41.869,21.163c0.05,0.308,0.317,0.527,0.62,0.527c0.034,0,0.067-0.002,0.101-0.007   c1.225-0.198,2.471-0.368,3.705-0.504c0.345-0.038,0.594-0.349,0.556-0.694c-0.038-0.344-0.354-0.589-0.694-0.555   c-1.254,0.139-2.521,0.311-3.767,0.512C42.046,20.498,41.813,20.819,41.869,21.163z" fill="#FFFFFF"></path>
	<path d="M49.311,19.646c-0.346,0.024-0.607,0.324-0.584,0.67c0.023,0.332,0.299,0.585,0.626,0.585   c0.014,0,0.029,0,0.043,0c1.234-0.085,2.49-0.14,3.735-0.161c0.347-0.007,0.623-0.293,0.617-0.641   c-0.007-0.347-0.303-0.63-0.64-0.617C51.843,19.505,50.565,19.561,49.311,19.646z" fill="#FFFFFF"></path>
	<path d="M86.326,27.914c0.087,0.042,0.179,0.061,0.27,0.061c0.235,0,0.46-0.132,0.567-0.358   c0.149-0.313,0.017-0.688-0.297-0.837c-1.134-0.54-2.302-1.06-3.472-1.545c-0.318-0.131-0.688,0.019-0.821,0.339   c-0.134,0.321,0.019,0.689,0.339,0.822C84.062,26.872,85.211,27.383,86.326,27.914z" fill="#FFFFFF"></path>
	<path d="M93.012,30.058c-1.081-0.642-2.195-1.267-3.314-1.858c-0.307-0.163-0.688-0.045-0.85,0.262   c-0.161,0.307-0.044,0.687,0.263,0.849c1.1,0.581,2.196,1.196,3.259,1.828c0.101,0.061,0.212,0.088,0.32,0.088   c0.215,0,0.424-0.11,0.541-0.307C93.407,30.621,93.31,30.235,93.012,30.058z" fill="#FFFFFF"></path>
	<path d="M80.012,25.261c0.071,0.026,0.145,0.039,0.216,0.039c0.256,0,0.497-0.158,0.591-0.412   c0.119-0.326-0.049-0.687-0.374-0.806c-1.184-0.433-2.395-0.844-3.601-1.218c-0.33-0.101-0.684,0.083-0.786,0.414   c-0.103,0.332,0.082,0.685,0.414,0.787C77.657,24.432,78.848,24.834,80.012,25.261z" fill="#FFFFFF"></path>
	<path d="M56.277,19.493c-0.332,0.015-0.635,0.266-0.643,0.613c-0.009,0.348,0.266,0.635,0.612,0.644   c1.236,0.029,2.493,0.091,3.733,0.184c0.017,0.001,0.031,0.002,0.048,0.002c0.326,0,0.602-0.252,0.626-0.583   c0.025-0.346-0.234-0.647-0.58-0.672C58.812,19.586,57.534,19.523,56.277,19.493z" fill="#FFFFFF"></path>
	<path d="M99.332,21.721c-1.059-0.676-2.152-1.338-3.248-1.97c-0.3-0.172-0.685-0.068-0.857,0.231   c-0.174,0.301-0.07,0.685,0.23,0.858c1.08,0.622,2.156,1.273,3.2,1.938c0.104,0.067,0.221,0.099,0.337,0.099   c0.208,0,0.41-0.103,0.531-0.29C99.711,22.295,99.625,21.907,99.332,21.721z" fill="#FFFFFF"></path>
	<path d="M93.311,18.225c-0.164-0.086-0.328-0.169-0.492-0.254l0.224-0.611c0.108-0.298-0.022-0.631-0.306-0.775   c-4.514-2.297-9.264-4.197-14.116-5.646c-0.168-0.051-0.349-0.028-0.499,0.061s-0.258,0.236-0.295,0.407l-0.117,0.537   c-1.002-0.29-2.012-0.568-3.019-0.819c-0.336-0.081-0.678,0.122-0.762,0.458c-0.084,0.336,0.121,0.678,0.458,0.762   c1.019,0.254,2.041,0.535,3.054,0.829l-1.388,6.342c-0.071,0.321,0.118,0.642,0.434,0.736c4.424,1.321,8.753,3.053,12.869,5.148   c0.089,0.045,0.187,0.068,0.284,0.068c0.078,0,0.156-0.015,0.23-0.044c0.167-0.066,0.298-0.2,0.36-0.37l2.153-5.894   c0.114,0.06,0.229,0.118,0.343,0.177c0.093,0.048,0.192,0.072,0.291,0.072c0.226,0,0.444-0.122,0.558-0.336   C93.735,18.766,93.618,18.386,93.311,18.225z M89.292,23.96c-3.818-1.9-7.812-3.494-11.888-4.744l1.505-6.878   c4.378,1.347,8.664,3.065,12.76,5.116L89.292,23.96z" fill="#FFFFFF"></path>
	<path d="M67.669,10.962c1.23,0.2,2.468,0.431,3.678,0.684c0.044,0.009,0.087,0.014,0.13,0.014   c0.292,0,0.553-0.203,0.614-0.5c0.071-0.34-0.146-0.672-0.486-0.743c-1.229-0.257-2.485-0.491-3.733-0.695   c-0.343-0.056-0.666,0.177-0.722,0.519C67.094,10.583,67.326,10.907,67.669,10.962z" fill="#FFFFFF"></path>
	<path d="M48.88,36.128c-0.924,0.082-1.855,0.185-2.766,0.306c-0.344,0.046-0.586,0.362-0.54,0.706   c0.042,0.315,0.312,0.545,0.622,0.545c0.027,0,0.056-0.002,0.083-0.005c0.893-0.119,1.805-0.219,2.711-0.3   c0.346-0.031,0.602-0.335,0.571-0.681C49.531,36.354,49.234,36.099,48.88,36.128z" fill="#FFFFFF"></path>
	<path d="M29.638,40.949c-1.157,0.492-2.32,1.03-3.457,1.599c-0.311,0.154-0.437,0.532-0.281,0.842   c0.11,0.221,0.332,0.348,0.562,0.348c0.094,0,0.19-0.021,0.28-0.066c1.115-0.557,2.254-1.084,3.388-1.566   c0.319-0.136,0.468-0.505,0.332-0.825C30.326,40.961,29.956,40.813,29.638,40.949z" fill="#FFFFFF"></path>
	<path d="M36.197,38.571c-1.213,0.365-2.428,0.771-3.61,1.207c-0.326,0.121-0.493,0.482-0.373,0.808   c0.094,0.254,0.333,0.411,0.589,0.411c0.072,0,0.146-0.012,0.217-0.039c1.159-0.426,2.35-0.825,3.54-1.184   c0.332-0.101,0.52-0.45,0.42-0.783C36.88,38.659,36.529,38.471,36.197,38.571z" fill="#FFFFFF"></path>
	<path d="M39.259,37.732c-0.337,0.083-0.543,0.424-0.459,0.761c0.07,0.286,0.328,0.478,0.609,0.478   c0.05,0,0.101-0.006,0.151-0.018c1.198-0.296,2.426-0.561,3.648-0.787c0.341-0.063,0.567-0.391,0.504-0.731   c-0.063-0.341-0.389-0.571-0.732-0.504C41.733,37.161,40.481,37.431,39.259,37.732z" fill="#FFFFFF"></path>
	<path d="M80.093,42.207c0.083,0.039,0.172,0.056,0.258,0.056c0.239,0,0.469-0.138,0.573-0.371   c0.143-0.316,0.002-0.688-0.314-0.831c-1.148-0.519-2.332-1.01-3.516-1.46c-0.326-0.125-0.688,0.039-0.812,0.363   c-0.123,0.325,0.039,0.688,0.364,0.811C77.807,41.218,78.967,41.699,80.093,42.207z" fill="#FFFFFF"></path>
	<path d="M83.59,43.917c0.094,0.05,0.194,0.073,0.293,0.073c0.226,0,0.443-0.121,0.556-0.335   c0.162-0.307,0.045-0.687-0.262-0.849c-0.235-0.125-0.472-0.247-0.709-0.368c-0.309-0.159-0.688-0.036-0.846,0.272   c-0.158,0.309-0.036,0.688,0.271,0.846C83.126,43.675,83.358,43.794,83.59,43.917z" fill="#FFFFFF"></path>
	<path d="M73.712,39.742c0.064,0.021,0.131,0.031,0.194,0.031c0.266,0,0.512-0.169,0.598-0.434   c0.107-0.33-0.074-0.685-0.403-0.792c-1.202-0.39-2.432-0.749-3.655-1.065c-0.336-0.091-0.679,0.115-0.766,0.45   c-0.088,0.336,0.114,0.679,0.45,0.766C71.329,39.008,72.534,39.36,73.712,39.742z" fill="#FFFFFF"></path>
	<path d="M63.426,37.347c1.226,0.178,2.462,0.394,3.675,0.645c0.043,0.009,0.086,0.013,0.128,0.013   c0.292,0,0.554-0.204,0.614-0.502c0.071-0.34-0.147-0.671-0.487-0.742c-1.238-0.256-2.5-0.477-3.75-0.658   c-0.341-0.055-0.662,0.188-0.712,0.532S63.082,37.297,63.426,37.347z" fill="#FFFFFF"></path>
</g>
</svg>